#!OML:ASF X:\für Bonn\!DataBase\2005_08_12_Daniel\c3d\Daniel.ASF
:FULLY-SPECIFIED
:DEGREES
124
root 3.62491 16.8397 -0.375004 -800.815 -73.9292 761.41
lowerback 38.8675 4.36371 -1.71653
upperback 15.2322 2.02074 -9.37037
thorax -2.10055 0.435061 -9.76905
lowerneck 15.7106 8.91347 1.04063
upperneck 28.9414 8.26649 10.2735
head 6.04778 3.90572 3.11643
rclavicle -6.75868e-015 3.49861e-014
rhumerus -43.6316 9.68087 -99.4394
rradius 64.4889
rwrist -0.0294938
rhand -33.6325 21.6177
rfingers 7.12502
rthumb -6.82478 -8.25233
lclavicle -6.75868e-015 3.49861e-014
lhumerus -33.3387 14.7392 69.2134
lradius 126.49
lwrist 210.629
lhand -10.2178 16.3708
lfingers 7.12502
lthumb 15.7739 45.748
rfemur 22.6183 3.11824 12.1243
rtibia 35.353
rfoot -18.9727 -6.33339
rtoes -7.61409
lfemur -74.2273 4.11125 -29.8574
ltibia 94.0926
lfoot 19.9104 1.72312
ltoes -14.4682
125
root 3.62835 16.8256 -0.381362 -798.155 -73.7351 759.902
lowerback 37.7595 4.08589 -1.88086
upperback 15.0548 1.77462 -9.33832
thorax -1.98594 0.330181 -9.52741
lowerneck 15.5942 9.07826 0.933892
upperneck 29.0908 8.48252 10.1731
head 6.10544 3.99886 3.10893
rclavicle 3.02153e-014 2.38542e-014
rhumerus -44.6698 10.0452 -100.169
rradius 63.7703
rwrist -0.140659
rhand -33.649 21.7018
rfingers 7.12502
rthumb -6.84078 -8.16764
lclavicle 3.02153e-014 2.38542e-014
lhumerus -32.1815 13.8709 68.9614
lradius 126.735
lwrist 210.584
lhand -10.5069 16.3482
lfingers 7.12502
lthumb 15.4954 45.7473
rfemur 20.819 2.96759 12.289
rtibia 36.5543
rfoot -19.5779 -6.67583
rtoes -7.54406
lfemur -72.8692 3.67212 -30.0238
ltibia 95.6609
lfoot 19.061 0.769604
ltoes -15.7865
126
root 3.63711 16.8081 -0.385785 -795.59 -73.5429 758.518
lowerback 36.6842 3.79748 -2.0057
upperback 14.8508 1.52255 -9.32447
thorax -1.89738 0.224382 -9.32985
lowerneck 15.4512 9.22089 0.834172
upperneck 29.1951 8.67769 10.0738
head 6.15283 4.08374 3.10029
rclavicle 2.10712e-014 -9.70069e-014
rhumerus -45.6457 10.4063 -100.897
rradius 62.9142
rwrist -0.319805
rhand -33.7097 21.8266
rfingers 7.12502
rthumb -6.89931 -8.04097
lclavicle 2.10712e-014 -9.70069e-014
lhumerus -31.0336 13.0543 68.6945
lradius 126.973
lwrist 210.478
lhand -10.8773 16.4655
lfingers 7.12502
lthumb 15.1387 45.8919
rfemur 18.9181 2.80511 12.4201
rtibia 37.8182
rfoot -20.1445 -6.95606
rtoes -7.52995
lfemur -71.4 3.23352 -30.16
ltibia 97.1052
lfoot 17.9905 0.149919
ltoes -15.8197
127
root 3.65354 16.787 -0.388378 -793.125 -73.3751 757.203
lowerback 35.7466 3.49501 -2.08908
upperback 14.6069 1.25123 -9.29689
thorax -1.88834 0.108886 -9.14012
lowerneck 15.3274 9.35825 0.721066
upperneck 29.2415 8.88247 9.92931
head 6.17951 4.16939 3.07642
rclavicle 2.54444e-014 -6.99722e-014
rhumerus -46.5221 10.8071 -101.591
rradius 61.8791
rwrist -0.483245
rhand -33.7981 21.9282
rfingers 7.12502
rthumb -6.98465 -7.93656
lclavicle 2.54444e-014 -6.99722e-014
lhumerus -29.9334 12.3228 68.4818
lradius 127.225
lwrist 210.273
lhand -11.2912 16.6503
lfingers 7.12502
lthumb 14.7399 46.1063
rfemur 17.0133 2.62012 12.5368
rtibia 39.0648
rfoot -20.6618 -7.19052
rtoes -7.51219
lfemur -69.772 2.78163 -30.2371
ltibia 98.41
lfoot 16.7844 -0.0987631
ltoes -14.9728
128
root 3.6767 16.7681 -0.38943 -790.797 -73.2128 756.021
lowerback 34.885 3.1927 -2.15425
upperback 14.3224 0.974786 -9.27326
thorax -1.93988 -0.00899986 -8.96795
lowerneck 15.1993 9.49343 0.593967
upperneck 29.2915 9.0787 9.80803
head 6.20617 4.25046 3.06279
rclavicle -3.22031e-014 -5.24792e-014
rhumerus -47.3438 11.2552 -102.28
rradius 60.7132
rwrist -0.690178
rhand -33.9521 21.9777
rfingers 7.12502
rthumb -7.13336 -7.88206
lclavicle -3.22031e-014 -5.24792e-014
lhumerus -28.8773 11.6787 68.3121
lradius 127.462
lwrist 210.042
lhand -11.7561 16.8449
lfingers 7.12502
lthumb 14.292 46.3331
rfemur 15.1106 2.42569 12.6162
rtibia 40.2376
rfoot -21.0742 -7.37289
rtoes -7.69981
lfemur -68.0324 2.34659 -30.2852
ltibia 99.5411
lfoot 15.6082 -0.116987
ltoes -13.8295
129
root 3.70564 16.7559 -0.388776 -788.646 -73.0698 754.993
lowerback 34.0656 2.89845 -2.20607
upperback 14.033 0.704604 -9.24184
thorax -2.00129 -0.12457 -8.80057
lowerneck 15.1315 9.62861 0.445001
upperneck 29.2577 9.28873 9.65663
head 6.19585 4.33293 3.03716
rclavicle -1.11319e-014 3.02153e-014
rhumerus -48.0705 11.6615 -102.882
rradius 59.4678
rwrist -0.842285
rhand -33.9896 22.0821
rfingers 7.12502
rthumb -7.16955 -7.77645
lclavicle -1.11319e-014 3.02153e-014
lhumerus -27.7852 11.1542 68.2268
lradius 127.673
lwrist 209.726
lhand -12.2062 17.0549
lfingers 7.12502
lthumb 13.8583 46.5732
rfemur 13.2661 2.21575 12.6463
rtibia 41.2854
rfoot -21.3883 -7.47899
rtoes -7.75732
lfemur -66.1571 1.94629 -30.3085
ltibia 100.478
lfoot 14.5044 -0.0419755
ltoes -13.0308
130
root 3.7369 16.7499 -0.386014 -786.548 -72.9581 753.999
lowerback 33.258 2.60525 -2.22656
upperback 13.7339 0.443146 -9.1895
thorax -2.06729 -0.23516 -8.63357
lowerneck 15.1349 9.73578 0.354706
upperneck 29.1594 9.48751 9.42099
head 6.16351 4.40961 2.97007
rclavicle 2.90226e-014 -2.70347e-014
rhumerus -48.7459 11.9657 -103.377
rradius 58.1895
rwrist -0.785427
rhand -33.9036 22.0186
rfingers 7.12502
rthumb -7.08651 -7.84274
lclavicle 2.90226e-014 -2.70347e-014
lhumerus -26.726 10.6766 68.1618
lradius 127.862
lwrist 209.486
lhand -12.5823 17.2435
lfingers 7.12502
lthumb 13.4958 46.7862
rfemur 11.4921 1.98561 12.6768
rtibia 42.1952
rfoot -21.5865 -7.5683
rtoes -7.88039
lfemur -64.1713 1.56417 -30.2784
ltibia 101.206
lfoot 13.605 0.247866
ltoes -12.6469
131
root 3.76708 16.7471 -0.380385 -784.534 -72.8658 753.073
lowerback 32.429 2.31615 -2.21628
upperback 13.4398 0.194897 -9.1314
thorax -2.10981 -0.338331 -8.48438
lowerneck 15.1406 9.82454 0.305393
upperneck 29.0365 9.67021 9.1694
head 6.12729 4.48217 2.89071
rclavicle 6.08281e-014 2.38542e-014
rhumerus -49.3691 12.1757 -103.767
rradius 56.8942
rwrist -0.559178
rhand -33.6851 21.8353
rfingers 7.12502
rthumb -6.87562 -8.0331
lclavicle 6.08281e-014 2.38542e-014
lhumerus -25.7129 10.215 68.0824
lradius 128.06
lwrist 209.306
lhand -12.8159 17.4132
lfingers 7.12502
lthumb 13.2706 46.9707
rfemur 9.81275 1.6877 12.6573
rtibia 42.9564
rfoot -21.6978 -7.57571
rtoes -8.10838
lfemur -62.0488 1.17967 -30.2092
ltibia 101.697
lfoot 12.9499 0.889558
ltoes -12.5259
132
root 3.79391 16.747 -0.373296 -782.538 -72.7994 752.112
lowerback 31.5858 2.0217 -2.16597
upperback 13.164 -0.0505063 -9.06264
thorax -2.11854 -0.439483 -8.34994
lowerneck 15.1758 9.9145 0.268287
upperneck 28.8625 9.86614 8.88612
head 6.07249 4.56048 2.79621
rclavicle 6.36111e-015 -4.13472e-014
rhumerus -49.9156 12.3446 -104.067
rradius 55.5031
rwrist -0.218049
rhand -33.3893 21.6664
rfingers 7.12502
rthumb -6.59 -8.21105
lclavicle 6.36111e-015 -4.13472e-014
lhumerus -24.7169 9.82971 67.9499
lradius 128.226
lwrist 209.196
lhand -12.9506 17.5088
lfingers 7.12502
lthumb 13.1408 47.0747
rfemur 8.25793 1.38741 12.6718
rtibia 43.5912
rfoot -21.7494 -7.56169
rtoes -8.25187
lfemur -59.7731 0.779311 -30.0861
ltibia 101.954
lfoot 12.5662 1.74285
ltoes -12.9271
133
root 3.81703 16.7523 -0.365058 -780.543 -72.7233 751.108
lowerback 30.7079 1.72699 -2.10349
upperback 12.9122 -0.293648 -8.98592
thorax -2.07907 -0.539899 -8.2181
lowerneck 15.186 10.0028 0.216002
upperneck 28.7057 10.0552 8.60833
head 6.02656 4.63509 2.7079
rclavicle 1.27222e-014 -7.95139e-015
rhumerus -50.409 12.4909 -104.277
rradius 54.0789
rwrist 0.271627
rhand -32.9673 21.4878
rfingers 7.12502
rthumb -6.18269 -8.40193
lclavicle 1.27222e-014 -7.95139e-015
lhumerus -23.7515 9.50065 67.78
lradius 128.361
lwrist 209.199
lhand -13.0292 17.5466
lfingers 7.12502
lthumb 13.0651 47.1174
rfemur 6.83489 1.03238 12.6696
rtibia 44.1075
rfoot -21.7491 -7.52185
rtoes -8.43642
lfemur -57.3711 0.29097 -29.9229
ltibia 101.999
lfoot 12.3936 2.77822
ltoes -12.6995
134
root 3.83859 16.7611 -0.355687 -778.501 -72.6674 750.063
lowerback 29.5787 1.41427 -1.94724
upperback 12.7684 -0.549966 -8.66947
thorax -1.89304 -0.653633 -8.41202
lowerneck 15.196 10.0874 0.198094
upperneck 28.5084 10.2481 8.31938
head 5.97036 4.71523 2.6094
rclavicle -3.97569e-016 3.97569e-014
rhumerus -50.8016 12.6332 -104.434
rradius 52.6267
rwrist 0.754944
rhand -32.4487 21.319
rfingers 7.12502
rthumb -5.68193 -8.58478
lclavicle -3.97569e-016 3.97569e-014
lhumerus -22.8456 9.18876 67.5541
lradius 128.483
lwrist 209.253
lhand -13.0313 17.5708
lfingers 7.12502
lthumb 13.063 47.1418
rfemur 5.44967 0.673481 12.7008
rtibia 44.5444
rfoot -21.7221 -7.47003
rtoes -8.54489
lfemur -54.9674 -0.248106 -29.6901
ltibia 101.917
lfoot 12.3896 3.79562
ltoes -11.3828
135
root 3.85858 16.7712 -0.344736 -776.44 -72.6225 748.994
lowerback 28.622 1.10953 -1.81447
upperback 12.5114 -0.789536 -8.61152
thorax -1.78741 -0.748068 -8.31989
lowerneck 15.237 10.1641 0.2163
upperneck 28.2781 10.4401 7.99982
head 5.90395 4.79636 2.49342
rclavicle 1.27222e-014 5.08889e-014
rhumerus -51.1175 12.7408 -104.547
rradius 51.1705
rwrist 1.28306
rhand -31.8722 21.1176
rfingers 7.12502
rthumb -5.1253 -8.80039
lclavicle 1.27222e-014 5.08889e-014
lhumerus -22.0332 8.90614 67.248
lradius 128.605
lwrist 209.338
lhand -12.9917 17.5687
lfingers 7.12502
lthumb 13.1012 47.1372
rfemur 4.10366 0.29158 12.7384
rtibia 44.9266
rfoot -21.6633 -7.36462
rtoes -8.57431
lfemur -52.5723 -0.818059 -29.4398
ltibia 101.715
lfoot 12.5213 4.61841
ltoes -11.47
136
root 3.87714 16.7802 -0.332421 -774.377 -72.589 747.93
lowerback 27.6223 0.809672 -1.66425
upperback 12.2536 -1.02027 -8.54094
thorax -1.65414 -0.837815 -8.23126
lowerneck 15.2955 10.2464 0.223532
upperneck 28.0186 10.6415 7.671
head 5.82572 4.88105 2.37474
rclavicle -4.6118e-014 5.40694e-014
rhumerus -51.3635 12.8379 -104.593
rradius 49.6994
rwrist 1.8241
rhand -31.3044 21.0199
rfingers 7.12502
rthumb -4.57711 -8.91064
lclavicle -4.6118e-014 5.40694e-014
lhumerus -21.2112 8.68037 66.9697
lradius 128.677
lwrist 209.403
lhand -12.9596 17.5842
lfingers 7.12502
lthumb 13.1321 47.1507
rfemur 2.75264 -0.108021 12.7854
rtibia 45.2944
rfoot -21.568 -7.2365
rtoes -8.64771
lfemur -50.1699 -1.38105 -29.1911
ltibia 101.354
lfoot 12.8347 5.10886
ltoes -12.3663
137
root 3.89457 16.7862 -0.319262 -772.274 -72.5556 746.799
lowerback 26.6 0.515524 -1.48649
upperback 12.011 -1.24135 -8.45661
thorax -1.48396 -0.922402 -8.1522
lowerneck 15.302 10.3261 0.206116
upperneck 27.7833 10.8284 7.38163
head 5.75966 4.96021 2.27599
rclavicle -1.15295e-014 1.59028e-015
rhumerus -51.5345 12.881 -104.561
rradius 48.2198
rwrist 2.38701
rhand -30.7781 20.9992
rfingers 7.12502
rthumb -4.06887 -8.9417
lclavicle -1.15295e-014 1.59028e-015
lhumerus -20.3625 8.49379 66.722
lradius 128.679
lwrist 209.402
lhand -12.9914 17.5866
lfingers 7.12502
lthumb 13.1015 47.155
rfemur 1.44397 -0.481561 12.868
rtibia 45.6492
rfoot -21.5035 -7.09042
rtoes -8.45231
lfemur -47.7746 -1.95645 -28.8983
ltibia 100.841
lfoot 13.4489 5.15211
ltoes -13.5426
138
root 3.91098 16.792 -0.304798 -770.247 -72.5103 745.702
lowerback 25.5925 0.222586 -1.34216
upperback 11.7682 -1.47777 -8.36477
thorax -1.31532 -1.01745 -8.04742
lowerneck 15.3043 10.4232 0.158272
upperneck 27.5375 11.0402 7.06688
head 5.6905 5.04778 2.17389
rclavicle -4.37326e-015 9.54166e-015
rhumerus -51.6927 12.9184 -104.462
rradius 46.8059
rwrist 3.03876
rhand -30.2895 20.991
rfingers 7.12502
rthumb -3.59704 -8.95843
lclavicle -4.37326e-015 9.54166e-015
lhumerus -19.5636 8.38801 66.4485
lradius 128.646
lwrist 209.393
lhand -13.0419 17.618
lfingers 7.12502
lthumb 13.0528 47.1896
rfemur 0.193073 -0.818399 12.9434
rtibia 45.9883
rfoot -21.4321 -6.91834
rtoes -8.17574
lfemur -45.3552 -2.537 -28.5699
ltibia 100.139
lfoot 14.2939 4.70494
ltoes -14.9988
